<svg height="502pt" viewBox="-1 0 502 502" width="502pt" xmlns="http://www.w3.org/2000/svg"><path d="m492.417969 215.230469v71.539062l-53.019531 5.109375c-5.023438 23.238282-14.335938 45.332032-27.460938 65.152344l33.847656 40.878906-50.457031 50.460938-40.882813-33.851563c-19.875 13.015625-41.949218 22.320313-65.148437 27.460938l-5.109375 53.019531h-68.960938l-5.109374-53.019531c-23.199219-5.140625-45.273438-14.445313-65.148438-27.460938l-40.882812 33.851563-50.457032-50.460938 33.847656-40.878906c-13.125-19.820312-22.4375-41.914062-27.460937-65.152344l-53.019531-5.109375v-71.539062l53.019531-5.109375c5.140625-23.199219 14.445313-45.273438 27.460937-65.152344l-33.847656-40.878906 50.457032-50.460938 40.882812 33.851563c19.816406-13.125 41.914062-22.441407 65.148438-27.460938l5.109374-53.019531h68.960938l5.109375 53.019531c23.234375 5.019531 45.332031 14.335938 65.148437 27.460938l40.882813-33.851563 50.457031 50.460938-33.847656 40.878906c13.015625 19.878906 22.320312 41.953125 27.460938 65.152344zm-97.730469 35.769531c0-79.535156-64.476562-144.011719-144.011719-144.011719-79.535156 0-144.007812 64.476563-144.007812 144.011719s64.472656 144.011719 144.007812 144.011719c79.535157-.003907 144.007813-64.480469 144.011719-144.011719zm0 0" fill="#00acea"/><path d="m367.128906 215.109375v6.441406c0 8.894531-7.210937 16.105469-16.105468 16.105469-8.894532 0-16.105469-7.210938-16.105469-16.105469v-6.441406c0-8.894531 7.210937-16.105469 16.105469-16.105469 8.894531 0 16.105468 7.210938 16.105468 16.105469zm0 0" fill="#00acea"/><path d="m250.675781 106.988281c79.535157 0 144.011719 64.476563 144.011719 144.011719s-64.476562 144.011719-144.011719 144.011719c-79.535156 0-144.007812-64.476563-144.007812-144.011719.003906-79.53125 64.476562-144.007812 144.007812-144.011719zm116.453125 114.5625v-6.441406c0-8.894531-7.210937-16.105469-16.105468-16.105469-8.894532 0-16.105469 7.210938-16.105469 16.105469v6.441406c0 8.894531 7.210937 16.105469 16.105469 16.105469 8.894531 0 16.105468-7.210938 16.105468-16.105469zm-26.632812 115.449219v-31.171875c0-13.871094-11.246094-25.117187-25.117188-25.117187l-14.792968 13.878906-14.269532-13.878906c-14.164062.003906-25.644531 11.484374-25.648437 25.648437v30.640625zm-23.808594-87.449219v-6.441406c0-8.894531-7.210938-16.105469-16.105469-16.105469s-16.105469 7.210938-16.105469 16.105469v6.441406c0 8.894531 7.210938 16.105469 16.105469 16.105469s16.105469-7.210938 16.105469-16.105469zm-49.558594-28v-6.441406c0-8.894531-7.210937-16.105469-16.105468-16.105469-8.894532 0-16.105469 7.210938-16.105469 16.105469v6.441406c0 8.894531 7.210937 16.105469 16.105469 16.105469 8.894531 0 16.105468-7.210938 16.105468-16.105469zm-26.191406 115.449219v-31.171875c-.003906-13.875-11.253906-25.121094-25.128906-25.117187l-14.792969 13.878906-14.257813-13.878906c-14.167968-.007813-25.65625 11.480468-25.652343 25.648437v30.640625zm-23.808594-87.449219v-6.441406c0-8.894531-7.210937-16.105469-16.105468-16.105469-8.894532 0-16.105469 7.210938-16.105469 16.105469v6.441406c0 8.894531 7.210937 16.105469 16.105469 16.105469 8.894531 0 16.105468-7.210938 16.105468-16.105469zm-50-28v-6.441406c0-8.894531-7.210937-16.105469-16.105468-16.105469-8.894532 0-16.105469 7.210938-16.105469 16.105469v6.441406c0 8.894531 7.210937 16.105469 16.105469 16.105469 8.894531 0 16.105468-7.210938 16.105468-16.105469zm0 0" fill="#00efd1"/><path d="m340.496094 305.828125v31.171875h-79.828125v-30.640625c.003906-14.164063 11.484375-25.644531 25.648437-25.648437l14.269532 13.878906 14.792968-13.878906c13.871094 0 25.117188 11.246093 25.117188 25.117187zm0 0" fill="#fedb41"/><path d="m316.6875 243.109375v6.441406c0 8.894531-7.210938 16.105469-16.105469 16.105469s-16.105469-7.210938-16.105469-16.105469v-6.441406c0-8.894531 7.210938-16.105469 16.105469-16.105469s16.105469 7.210938 16.105469 16.105469zm0 0" fill="#fedb41"/><path d="m267.128906 215.109375v6.441406c0 8.894531-7.210937 16.105469-16.105468 16.105469-8.894532 0-16.105469-7.210938-16.105469-16.105469v-6.441406c0-8.894531 7.210937-16.105469 16.105469-16.105469 8.894531 0 16.105468 7.210938 16.105468 16.105469zm0 0" fill="#00acea"/><path d="m240.9375 305.828125v31.171875h-79.832031v-30.640625c-.003907-14.167969 11.484375-25.65625 25.652343-25.648437l14.257813 13.878906 14.792969-13.878906c13.875-.003907 25.125 11.242187 25.128906 25.117187zm0 0" fill="#fedb41"/><path d="m217.128906 243.109375v6.441406c0 8.894531-7.210937 16.105469-16.105468 16.105469-8.894532 0-16.105469-7.210938-16.105469-16.105469v-6.441406c0-8.894531 7.210937-16.105469 16.105469-16.105469 8.894531 0 16.105468 7.210938 16.105468 16.105469zm0 0" fill="#fedb41"/><path d="m167.128906 215.109375v6.441406c0 8.894531-7.210937 16.105469-16.105468 16.105469-8.894532 0-16.105469-7.210938-16.105469-16.105469v-6.441406c0-8.894531 7.210937-16.105469 16.105469-16.105469 8.894531 0 16.105468 7.210938 16.105468 16.105469zm0 0" fill="#00acea"/><g fill="#083863"><path d="m493.089844 208.261719-48-4.625c-5.113282-20.523438-13.386719-40.125-24.527344-58.101563l30.621094-36.976562c2.300781-2.78125 2.109375-6.859375-.445313-9.414063l-50.460937-50.464843c-2.554688-2.554688-6.632813-2.746094-9.414063-.441407l-36.925781 30.578125c-17.960938-11.203125-37.59375-19.46875-58.15625-24.488281l-4.625-48c-.347656-3.589844-3.363281-6.328125-6.96875-6.328125h-68.960938c-3.605468 0-6.621093 2.738281-6.96875 6.328125l-4.625 48c-20.5625 5.019531-40.195312 13.285156-58.15625 24.488281l-36.925781-30.578125c-2.78125-2.304687-6.859375-2.109375-9.414062.441407l-50.460938 50.460937c-2.554687 2.554687-2.746093 6.632813-.441406 9.414063l30.621094 36.976562c-11.140625 17.980469-19.414063 37.582031-24.527344 58.101562l-48 4.625c-3.589844.347657-6.328125 3.363282-6.328125 6.96875v71.539063c0 3.609375 2.738281 6.625 6.328125 6.96875l48 4.625c5.019531 20.566406 13.285156 40.199219 24.484375 58.160156l-30.578125 36.925781c-2.304687 2.785157-2.113281 6.863282.441406 9.414063l50.460938 50.460937c2.554687 2.554688 6.632812 2.746094 9.414062.441407l36.976563-30.617188c17.980468 11.136719 37.582031 19.414063 58.101562 24.523438l4.625 48c.347656 3.59375 3.363282 6.335937 6.972656 6.332031h68.960938c3.605469 0 6.621094-2.738281 6.96875-6.328125l4.625-48c20.519531-5.113281 40.121094-13.386719 58.101562-24.527344l36.976563 30.621094c2.78125 2.304687 6.859375 2.113281 9.414063-.441406l50.460937-50.460938c2.550781-2.554687 2.742187-6.632812.441406-9.414062l-30.570312-36.929688c11.203125-17.960937 19.46875-37.589843 24.488281-58.15625l48-4.625c3.589844-.34375 6.328125-3.359375 6.328125-6.96875v-71.539062c0-3.609375-2.742187-6.625-6.332031-6.96875zm-7.671875 72.148437-46.691407 4.5c-3.03125.292969-5.527343 2.511719-6.171874 5.488282-4.84375 22.375-13.8125 43.65625-26.441407 62.75-1.714843 2.570312-1.539062 5.964843.433594 8.34375l29.785156 35.972656-41.449219 41.449218-35.972656-29.785156c-2.347656-1.949218-5.691406-2.144531-8.257812-.492187-19.175782 12.550781-40.460938 21.527343-62.835938 26.5-2.976562.644531-5.195312 3.140625-5.488281 6.171875l-4.5 46.691406h-56.242187l-4.5-46.691406c-.292969-3.03125-2.511719-5.527344-5.488282-6.167969-22.371094-4.972656-43.660156-13.953125-62.835937-26.5-2.566407-1.65625-5.90625-1.457031-8.257813.488281l-35.972656 29.785156-41.445312-41.449218 29.785156-35.972656c1.972656-2.378907 2.148437-5.773438.433594-8.34375-12.632813-19.09375-21.597657-40.375-26.445313-62.75-.644531-2.976563-3.136719-5.195313-6.167969-5.488282l-46.695312-4.5v-58.820312l46.695312-4.5c3.03125-.292969 5.523438-2.511719 6.167969-5.488282 4.972656-22.371093 13.949219-43.660156 26.5-62.835937 1.65625-2.566406 1.457031-5.90625-.492187-8.257813l-29.78125-35.972656 41.445312-41.449218 35.976562 29.785156c2.378907 1.972656 5.773438 2.148437 8.347657.433594 19.09375-12.628907 40.371093-21.597657 62.746093-26.441407 2.976563-.644531 5.195313-3.140625 5.488282-6.171875l4.496094-46.691406h56.246093l4.5 46.691406c.292969 3.03125 2.511719 5.527344 5.488281 6.167969 22.375 4.847656 43.652344 13.816406 62.746094 26.445313 2.574219 1.714843 5.964844 1.539062 8.347656-.433594l35.972657-29.785156 41.449219 41.449218-29.789063 35.972656c-1.945313 2.351563-2.144531 5.691407-.488281 8.257813 12.546875 19.175781 21.527344 40.460937 26.5 62.835937.640625 2.976563 3.136718 5.195313 6.167968 5.488282l46.691407 4.5zm0 0"/><path d="m250.675781 99.988281c-83.265625 0-151.007812 67.746094-151.007812 151.011719s67.738281 151.011719 151.007812 151.011719 151.011719-67.746094 151.011719-151.011719-67.742188-151.011719-151.011719-151.011719zm0 288.023438c-75.546875 0-137.007812-61.464844-137.007812-137.011719s61.460937-137.011719 137.007812-137.011719c75.550781 0 137.011719 61.464844 137.011719 137.011719s-61.460938 137.011719-137.011719 137.011719zm0 0"/><path d="m201.015625 272.660156c12.757813-.015625 23.097656-10.351562 23.113281-23.109375v-6.441406c-.011718-12.757813-10.355468-23.097656-23.113281-23.097656-12.75.011719-23.082031 10.347656-23.097656 23.097656v6.441406c.011719 12.753907 10.34375 23.09375 23.097656 23.109375zm-9.097656-29.550781c0-3.683594 2.21875-7.003906 5.625-8.410156 3.40625-1.410157 7.324219-.621094 9.921875 1.988281 1.710937 1.699219 2.671875 4.011719 2.664062 6.421875v6.441406c0 5.027344-4.078125 9.105469-9.105468 9.105469-5.03125 0-9.105469-4.078125-9.105469-9.105469zm0 0"/><path d="m300.585938 272.660156c12.753906-.015625 23.089843-10.355468 23.101562-23.109375v-6.441406c-.007812-12.753906-10.347656-23.089844-23.101562-23.097656-12.753907.011719-23.09375 10.34375-23.109376 23.097656v6.441406c.015626 12.757813 10.351563 23.09375 23.109376 23.109375zm-9.109376-29.550781c.007813-5.027344 4.085938-9.097656 9.109376-9.097656 5.023437.007812 9.09375 4.074219 9.101562 9.097656v6.441406c0 5.027344-4.078125 9.105469-9.105469 9.105469-5.027343 0-9.105469-4.078125-9.105469-9.105469zm0 0"/><path d="m315.378906 273.710938c-1.78125 0-3.496094.679687-4.792968 1.898437l-9.914063 9.300781-9.476563-9.21875c-1.304687-1.269531-3.054687-1.980468-4.878906-1.980468-18.03125.003906-32.644531 14.621093-32.652344 32.648437v30.640625c0 3.867188 3.136719 7 7 7h79.832032c3.867187 0 7-3.132812 7-7v-31.171875c-.019532-17.730469-14.386719-32.097656-32.117188-32.117187zm18.117188 56.289062h-65.828125v-23.640625c.003906-9.273437 6.820312-17.136719 16-18.464844l12.039062 11.714844c2.683594 2.609375 6.941407 2.644531 9.671875.085937l12.574219-11.800781c8.917969 1.292969 15.535156 8.929688 15.542969 17.9375zm0 0"/><path d="m274.128906 221.550781v-6.441406c-.011718-12.757813-10.355468-23.097656-23.113281-23.097656-12.75.011719-23.082031 10.347656-23.097656 23.097656v6.441406c0 12.757813 10.34375 23.105469 23.105469 23.105469 12.757812 0 23.105468-10.347656 23.105468-23.105469zm-14 0c0 5.027344-4.078125 9.105469-9.105468 9.105469-5.03125 0-9.105469-4.078125-9.105469-9.105469v-6.441406c0-3.683594 2.21875-7.003906 5.625-8.410156 3.40625-1.410157 7.324219-.621094 9.921875 1.988281 1.710937 1.699219 2.671875 4.011719 2.664062 6.421875zm0 0"/><path d="m327.917969 215.109375v6.441406c0 12.757813 10.34375 23.105469 23.105469 23.105469 12.757812 0 23.105468-10.347656 23.105468-23.105469v-6.441406c-.011718-12.757813-10.355468-23.097656-23.113281-23.097656-12.75.011719-23.082031 10.347656-23.097656 23.097656zm14 0c0-3.683594 2.21875-7.003906 5.625-8.410156 3.40625-1.410157 7.324219-.621094 9.921875 1.988281 1.710937 1.699219 2.671875 4.011719 2.664062 6.421875v6.441406c0 5.027344-4.078125 9.105469-9.105468 9.105469-5.03125 0-9.105469-4.078125-9.105469-9.105469zm0 0"/><path d="m174.128906 221.550781v-6.441406c-.011718-12.757813-10.355468-23.097656-23.113281-23.097656-12.75.011719-23.082031 10.347656-23.097656 23.097656v6.441406c0 12.757813 10.34375 23.105469 23.105469 23.105469 12.757812 0 23.105468-10.347656 23.105468-23.105469zm-14 0c0 5.027344-4.078125 9.105469-9.105468 9.105469-5.03125 0-9.105469-4.078125-9.105469-9.105469v-6.441406c0-3.683594 2.21875-7.003906 5.625-8.410156 3.40625-1.410157 7.324219-.621094 9.921875 1.988281 1.710937 1.699219 2.671875 4.011719 2.664062 6.421875zm0 0"/><path d="m215.808594 273.710938c-1.78125 0-3.496094.679687-4.792969 1.898437l-9.910156 9.300781-9.464844-9.214844c-1.308594-1.269531-3.058594-1.980468-4.882813-1.980468-18.035156-.007813-32.65625 14.613281-32.652343 32.648437v30.636719c0 3.867188 3.136719 7 7 7h79.832031c3.867188 0 7-3.132812 7-7v-31.171875c-.023438-17.730469-14.398438-32.101563-32.128906-32.117187zm18.128906 56.289062h-65.832031v-23.640625c0-9.277344 6.816406-17.144531 16-18.464844l12.03125 11.710938c2.683593 2.609375 6.945312 2.648437 9.671875.089843l12.578125-11.800781c8.917969 1.289063 15.539062 8.925781 15.554687 17.9375v24.167969zm0 0"/></g></svg>