<svg xmlns="http://www.w3.org/2000/svg" width="672" height="672" viewBox="-9 0 504 504.715"><path fill="#00efd1" d="m479.359375 311.304688v92h-73.113281l-4.457032-55.609376.449219-.042968 27.121094-74.347656h12c20.984375 0 38 17.011718 38 38zm0 0"/><path fill="#00efd1" d="m430.585938 203.964844v14.488281c0 20.011719-16.21875 36.230469-36.226563 36.230469-20.011719 0-36.230469-16.21875-36.230469-36.230469v-14.488281c0-20.011719 16.21875-36.230469 36.230469-36.230469 20.007813 0 36.226563 16.21875 36.226563 36.230469zm0 0"/><path fill="#00acea" d="m410.457031 276.035156-7.25 21.238282h-15.699219l-7.25-21.347657zm0 0"/><path fill="#00acea" d="m406.246094 403.304688 1.320312 16.410156-11.628906 7.859375-11.929688-7.859375 1.300782-16.230469 4.480468-55.800781 2.917969-36.308594h6.171875l2.910156 36.320312zm0 0"/><path fill="#fedb41" d="m398.046875 82.902344h-42.628906l34.320312-34.316406.070313-.03125c5.425781 10.636718 8.25 22.410156 8.238281 34.347656zm0 0"/><path fill="#f4b844" d="m389.808594 48.554688-.070313.03125-34.320312 34.316406h-33.28125v-.238282l53.582031-53.570312.007812-.007812c.042969.03125.082032.070312.121094.109374 5.617188 5.699219 10.324219 12.230469 13.960938 19.359376zm0 0"/><path fill="#00efd1" d="m389.789062 347.683594-4.480468 55.800781-2.269532-.179687h-31.429687v-20.601563c-.003906-24.367187-18.121094-44.933594-42.292969-48.007813l.042969-.3125v-23.078124c0-20.988282 17.011719-38 38-38h12l30 74.347656zm0 0"/><path fill="#fedb41" d="m375.726562 29.085938-.007812.007812-53.582031 53.570312v-33.511718l34.0625-34.066406c7.191406 3.628906 13.78125 8.351562 19.527343 14zm0 0"/><path fill="#fedb41" d="m293.96875 110.605469h75.910156c-.035156 20.128906-8.015625 39.429687-22.203125 53.707031-21.726562 21.691406-54.378906 28.167969-82.742187 16.414062-28.363282-11.75-46.863282-39.421874-46.886719-70.121093.035156-20.136719 8.019531-39.441407 22.210937-53.722657 14.214844-14.277343 33.558594-22.273437 53.710938-22.199218zm0 0"/><path fill="#f4b844" d="m356.199219 15.085938-34.0625 34.066406v-42.15625c11.832031-.015625 23.5 2.757812 34.0625 8.089844zm0 0"/><path fill="#00acea" d="m351.609375 403.304688v76.558593h-91.773437l-.207032.011719-1.613281-24.011719-.109375-2.390625 29.160156-119.160156h16.140625c2.042969 0 4.082031.128906 6.109375.382812 24.171875 3.074219 42.289063 23.640626 42.292969 48.007813zm0 0"/><path fill="#00acea" d="m289.496094 246.003906v18.460938c0 25.480468-20.65625 46.140625-46.136719 46.140625-25.484375 0-46.140625-20.660157-46.140625-46.140625v-18.460938c0-25.480468 20.65625-46.140625 46.140625-46.140625 25.480469 0 46.136719 20.660157 46.136719 46.140625zm0 0"/><path fill="#00efd1" d="m264.40625 337.785156-10 20-18.457031-.132812-10-20zm0 0"/><path fill="#00efd1" d="m231.886719 451.964844 4.0625-74.3125 18.457031.132812 3.5 75.6875.109375 2.390625 1.613281 24.011719.519532 7.839844-14.921876 10-15.289062-10 .429688-7.832032zm0 0"/><path fill="#00acea" d="m135.109375 403.304688v-20.601563c0-24.421875 18.199219-45.015625 42.4375-48.019531 1.976563-.25 3.96875-.371094 5.960937-.371094h16.140626l32.238281 117.652344-1.519531 27.917968-.410157-.019531h-94.847656zm0 0"/><path fill="#00efd1" d="m177.359375 333.015625.1875 1.667969c-24.238281 3.003906-42.4375 23.597656-42.4375 48.019531v20.601563h-30.730469l-.132812.007812-4.457032-55.617188.449219-.042968 27.121094-74.347656h12c20.984375 0 38 17.011718 38 38zm0 0"/><path fill="#00efd1" d="m128.585938 203.964844v14.488281c0 20.011719-16.21875 36.230469-36.226563 36.230469-20.011719 0-36.230469-16.21875-36.230469-36.230469v-14.488281c0-20.011719 16.21875-36.230469 36.230469-36.230469 20.007813 0 36.226563 16.21875 36.226563 36.230469zm0 0"/><path fill="#00acea" d="m108.457031 276.035156-7.25 21.238282h-15.699219l-7.25-21.347657zm0 0"/><path fill="#00acea" d="m104.246094 403.3125 1.320312 16.402344-11.628906 7.859375-11.929688-7.859375 1.320313-16.390625 4.460937-55.640625 2.917969-36.308594h6.171875l2.910156 36.320312zm0 0"/><path fill="#00efd1" d="m87.789062 347.683594-4.460937 55.640625-.3125-.019531h-75.65625v-92c0-20.988282 17.011719-38 38-38h12l30 74.347656zm0 0"/><g fill="#083863"><path d="m293.96875 193.515625c22.027344.074219 43.167969-8.675781 58.699219-24.296875 15.484375-15.578125 24.183593-36.648438 24.207031-58.613281 0-3.867188-3.136719-7-7-7h-68.90625v-68.921875c0-3.867188-3.136719-7-7-7-22.027344-.070313-43.167969 8.679687-58.703125 24.292968-23.671875 23.738282-30.730469 59.394532-17.886719 90.359376 12.84375 30.96875 43.0625 51.160156 76.589844 51.179687zm-48.761719-131.683594c11.199219-11.246093 25.964844-18.246093 41.761719-19.796875v68.570313c0 3.867187 3.132812 7 7 7h68.554688c-1.644532 15.773437-8.632813 30.507812-19.800782 41.761719-19.726562 19.6875-49.367187 25.566406-75.113281 14.894531-25.75-10.667969-42.542969-35.785157-42.566406-63.65625.027343-18.28125 7.277343-35.808594 20.164062-48.773438zm0 0"/><path d="m322.136719 89.902344h75.910156c3.867187 0 7-3.132813 7-7 .027344-13.042969-3.058594-25.90625-9-37.519532-3.964844-7.789062-9.109375-14.917968-15.25-21.136718-.089844-.089844-.199219-.195313-.320313-.308594-6.226562-6.085938-13.351562-11.179688-21.128906-15.097656-11.53125-5.839844-24.285156-8.871094-37.210937-8.839844-3.867188 0-7 3.132812-7 7v75.910156c.003906 3.863282 3.136719 6.992188 7 6.992188zm7-37.847656 28.292969-28.300782c2.828124 1.6875 5.535156 3.570313 8.101562 5.636719l-36.394531 36.375zm43.179687 23.847656 15.089844-15.085938c1.667969 4.886719 2.773438 9.949219 3.292969 15.085938zm8.796875-28.59375-28.597656 28.59375h-13.714844l36.648438-36.640625c2.074219 2.546875 3.964843 5.238281 5.664062 8.046875zm-37.242187-29.792969-14.734375 14.738281v-17.910156c5.015625.503906 9.957031 1.570312 14.734375 3.171875zm0 0"/><path d="m243.359375 317.605469c29.332031-.035157 53.105469-23.804688 53.136719-53.140625v-18.460938c.082031-19.039062-10.027344-36.667968-26.5-46.210937-16.476563-9.546875-36.800782-9.546875-53.273438 0-16.476562 9.542969-26.585937 27.171875-26.503906 46.210937v18.460938c.03125 29.332031 23.804688 53.105468 53.140625 53.140625zm-39.140625-71.601563c0-21.617187 17.523438-39.140625 39.140625-39.140625 21.613281 0 39.136719 17.523438 39.136719 39.140625v18.460938c0 21.617187-17.523438 39.140625-39.136719 39.140625-21.617187 0-39.140625-17.523438-39.140625-39.140625zm0 0"/><path d="m410.484375 269.035156-30.203125-.109375h-.023438c-2.257812 0-4.375 1.085938-5.691406 2.921875-1.3125 1.835938-1.664062 4.191406-.9375 6.328125l7.25 21.347657c.964844 2.839843 3.628906 4.75 6.628906 4.75h15.699219c2.996094 0 5.65625-1.902344 6.625-4.738282l7.25-21.238281c.730469-2.136719.382813-4.488281-.925781-6.324219-1.304688-1.835937-3.417969-2.929687-5.671875-2.9375zm-12.285156 21.238282h-5.675781l-2.484376-7.3125 10.644532.039062zm0 0"/><path d="m351.128906 203.964844v14.488281c0 23.875 19.351563 43.230469 43.230469 43.230469 23.875 0 43.226563-19.355469 43.226563-43.230469v-14.488281c0-23.875-19.351563-43.230469-43.226563-43.230469-23.878906 0-43.230469 19.355469-43.230469 43.230469zm72.457032 0v14.488281c0 16.144531-13.085938 29.230469-29.226563 29.230469-16.144531 0-29.230469-13.085938-29.230469-29.230469v-14.488281c0-16.144532 13.085938-29.230469 29.230469-29.230469 16.140625 0 29.226563 13.085937 29.226563 29.230469zm0 0"/><path d="m108.484375 269.035156-30.203125-.109375h-.023438c-2.257812 0-4.375 1.085938-5.691406 2.921875-1.3125 1.835938-1.664062 4.191406-.9375 6.328125l7.25 21.347657c.964844 2.839843 3.628906 4.75 6.628906 4.75h15.699219c2.996094 0 5.65625-1.902344 6.625-4.738282l7.25-21.238281c.730469-2.136719.382813-4.488281-.925781-6.324219-1.304688-1.835937-3.417969-2.929687-5.671875-2.9375zm-12.285156 21.238282h-5.675781l-2.484376-7.3125 10.644532.039062zm0 0"/><path d="m92.359375 261.683594c23.863281-.027344 43.199219-19.367188 43.226563-43.230469v-14.488281c0-23.875-19.351563-43.230469-43.226563-43.230469-23.878906 0-43.230469 19.355469-43.230469 43.230469v14.488281c.027344 23.863281 19.363282 43.203125 43.230469 43.230469zm-29.230469-57.71875c-.0625-10.484375 5.496094-20.199219 14.5625-25.457032 9.070313-5.261718 20.261719-5.261718 29.332032 0 9.070312 5.257813 14.625 14.972657 14.566406 25.457032v14.488281c0 16.144531-13.089844 29.230469-29.230469 29.230469-16.144531 0-29.230469-13.085938-29.230469-29.230469zm0 0"/><path d="m441.359375 266.304688h-12c-2.941406 0-5.570313 1.835937-6.578125 4.597656l-16.5 45.234375-.425781-5.324219c-.292969-3.636719-3.328125-6.441406-6.980469-6.4375h-6.167969c-3.648437-.003906-6.6875 2.800781-6.980469 6.4375l-.609374 7.625-19.269532-47.753906c-1.066406-2.644532-3.636718-4.378906-6.488281-4.378906h-12c-24.84375.027343-44.972656 20.160156-45 45v16.007812h-15.292969c-3.222656 0-6.03125 2.203125-6.800781 5.335938l-17.609375 71.972656-1.253906-27.160156c-.171875-3.714844-3.222656-6.648438-6.941406-6.675782l-18.460938-.132812h-.050781c-3.71875.003906-6.785157 2.910156-6.988281 6.621094l-1.710938 31.28125-20.851562-76.089844c-.835938-3.042969-3.597657-5.152344-6.753907-5.152344h-15.285156v-16.007812c-.03125-24.839844-20.160156-44.972657-45-45h-12c-2.941406 0-5.570313 1.835937-6.578125 4.597656l-16.5 45.234375-.425781-5.324219c-.292969-3.636719-3.328125-6.441406-6.980469-6.4375h-6.167969c-3.648437-.003906-6.6875 2.800781-6.980469 6.4375l-.609374 7.625-19.269532-47.753906c-1.066406-2.644532-3.636718-4.378906-6.488281-4.378906h-12c-24.84375.027343-44.972656 20.160156-45 45v92c0 3.867187 3.132813 7 7 7h68.382813l-.710938 8.847656c-.207031 2.546875.992188 5 3.125 6.40625l11.929688 7.859375c2.363281 1.558593 5.429687 1.539062 7.773437-.042969l11.628906-7.859375c2.09375-1.414063 3.261719-3.847656 3.058594-6.363281l-.710937-8.847656h16.273437v69.558593c0 3.867188 3.132813 7 7 7h87.863281l-.023437.46875c-.136719 2.496094 1.066406 4.875 3.160156 6.242188l15.289063 10c2.351562 1.535156 5.394531 1.519531 7.726562-.042969l14.921875-10c2.074219-1.394531 3.25-3.785156 3.085937-6.28125l-.023437-.386719h84.5c3.863281 0 7-3.132812 7-7v-69.558593h19.132813l-.710938 8.851562c-.203125 2.542969.996094 4.996094 3.125 6.398438l11.929688 7.863281c2.363281 1.554687 5.429687 1.539062 7.773437-.046875l11.628906-7.859375c2.09375-1.414063 3.261719-3.84375 3.058594-6.363281l-.710937-8.847657h65.523437c3.863281 0 7-3.132812 7-7v-92c-.03125-24.839843-20.160156-44.96875-45-44.996093zm-427 130v-85c.015625-17.113282 13.886719-30.980469 31-31h7.273437l27.976563 69.328124-3.746094 46.671876zm79.527344 22.855468-4.570313-3.011718 4.472656-55.699219 4.472657 55.757812zm16.824219-22.855468-3.742188-46.675782 25.289062-69.324218h7.101563c17.109375.019531 30.980469 13.886718 31 31v17.597656c-24.792969 6.070312-42.234375 28.28125-42.25 53.800781v13.601563zm31.402343 76.558593v-90.160156c.007813-20.898437 15.585938-38.515625 36.328125-41.074219 1.683594-.214844 3.375-.316406 5.070313-.316406h10.800781l30.527344 111.410156-1.097656 20.140625zm103.070313 16.457031-8.03125-5.253906 1.742187-31.921875.285157-.078125-.234376-.855468 3.632813-66.507813 5.148437.035156 3.300782 71.449219c0 .050781 0 .101562.007812.148438l1.859375 27.8125zm99.425781-16.457031h-78.4375l-1.164063-17.394531-.0625-1.308594 27.613282-112.847656h10.644531c1.75 0 3.5.109375 5.238281.328125 20.664063 2.648437 36.148438 20.230469 36.160156 41.0625v90.160156zm14-76.558593v-13.601563c-.035156-25.515625-17.46875-47.722656-42.25-53.804687v-17.59375c.015625-17.113282 13.886719-30.980469 31-31h7.273437l27.976563 69.328124-3.746094 46.671876zm37.277344 22.855468-4.570313-3.011718 4.46875-55.714844 4.476563 55.769531zm76.472656-22.855468h-59.648437l-3.742188-46.675782 25.289062-69.324218h7.101563c17.109375.019531 30.980469 13.886718 31 31zm0 0"/><path d="m264.429688 330.785156-38.460938-.132812h-.019531c-2.429688.003906-4.679688 1.257812-5.957031 3.324218-1.273438 2.0625-1.390626 4.640626-.304688 6.808594l10 20c1.175781 2.355469 3.578125 3.851563 6.210938 3.871094l18.460937.128906h.050781c2.648438 0 5.074219-1.5 6.257813-3.871094l10-20c1.085937-2.164062.972656-4.738281-.296875-6.800781-1.273438-2.0625-3.519532-3.320312-5.941406-3.328125zm-14.332032 19.96875-9.808594-.070312-3-5.992188 15.808594.054688zm0 0"/></g></svg>