<svg height="494pt" viewBox="-4 0 494 494.85705" width="494pt" xmlns="http://www.w3.org/2000/svg"><path d="m479.429688 301.449219v92h-72.652344l-.449219.039062-4.46875-55.648437.449219-.042969 27.121094-74.347656h12c20.984374 0 38 17.011719 38 38zm0 0" fill="#00efd1"/><path d="m430.660156 194.109375v14.488281c0 20.007813-16.222656 36.230469-36.230468 36.230469-20.011719 0-36.230469-16.222656-36.230469-36.230469v-14.488281c0-20.011719 16.21875-36.230469 36.230469-36.230469 20.007812 0 36.230468 16.21875 36.230468 36.230469zm0 0" fill="#00efd1"/><path d="m410.527344 266.179688-7.25 21.238281h-15.699219l-7.25-21.351563zm0 0" fill="#00acea"/><path d="m406.328125 393.488281 1.308594 16.371094-11.628907 7.859375-11.929687-7.859375 1.300781-16.230469 4.480469-55.800781 2.917969-36.300781h6.171875l2.910156 36.3125zm0 0" fill="#00acea"/><path d="m389.859375 337.828125-4.480469 55.800781-2.269531-.179687h-31.429687v-20.601563c-.003907-24.367187-18.117188-44.933594-42.292969-48.007812l.042969-.3125v-23.078125c0-20.988281 17.011718-38 38-38h12l30 74.347656zm0 0" fill="#00efd1"/><path d="m351.679688 393.449219v76.558593h-91.769532l-.210937.011719-1.609375-24.011719-.109375-2.390624 29.15625-119.160157h16.140625c2.042968 0 4.085937.128907 6.109375.382813 24.175781 3.074218 42.289062 23.640625 42.292969 48.007812zm0 0" fill="#00acea"/><path d="m332.148438 157.796875c.015624 30.613281-15.710938 59.078125-41.628907 75.359375-.289062.183594-.582031.363281-.882812.542969l-.128907.007812c-1.300781-24.558593-21.636718-43.78125-46.230468-43.699219-24.59375.082032-44.800782 19.441407-45.9375 44.011719l-.160156-.011719c-36.800782-22.199218-52.480469-67.519531-37.269532-107.714843 15.214844-40.191407 56.976563-63.773438 99.253906-56.042969 42.273438 7.734375 72.984376 44.570312 72.984376 87.546875zm0 0" fill="#00efd1"/><path d="m289.570312 236.148438v18.460937c0 25.480469-20.660156 46.136719-46.140624 46.136719-25.484376 0-46.140626-20.65625-46.140626-46.136719v-18.460937c0-.71875.019532-1.429688.050782-2.128907 1.144531-24.5625 21.347656-43.910156 45.9375-43.992187 24.585937-.082032 44.917968 19.128906 46.230468 43.679687.039063.8125.0625 1.621094.0625 2.441407zm0 0" fill="#00acea"/><path d="m264.480469 327.929688-10 20-18.460938-.132813-10-20zm0 0" fill="#00efd1"/><path d="m257.980469 443.617188.109375 2.390624 1.609375 24.011719.519531 7.839844-14.921875 10-15.289063-10 .429688-7.832031 1.519531-27.917969 4.0625-74.3125 18.460938.132813zm0 0" fill="#00efd1"/><path d="m135.179688 393.449219v-20.601563c0-24.421875 18.199218-45.015625 42.4375-48.019531 1.976562-.25 3.96875-.375 5.960937-.371094h16.140625l32.238281 117.652344-1.519531 27.917969-.410156-.019532h-94.847656zm0 0" fill="#00acea"/><path d="m177.429688 323.15625.1875 1.671875c-24.238282 3.003906-42.4375 23.597656-42.4375 48.019531v20.601563h-30.730469l-.128907.007812-4.460937-55.617187.449219-.042969 27.121094-74.347656h12c20.984374 0 38 17.011719 38 38zm0 0" fill="#00efd1"/><path d="m128.660156 194.109375v14.488281c0 20.007813-16.222656 36.230469-36.230468 36.230469-20.011719 0-36.230469-16.222656-36.230469-36.230469v-14.488281c0-20.011719 16.21875-36.230469 36.230469-36.230469 20.007812 0 36.230468 16.21875 36.230468 36.230469zm0 0" fill="#00efd1"/><path d="m108.527344 266.179688-7.25 21.238281h-15.699219l-7.25-21.351563zm0 0" fill="#00acea"/><path d="m104.320312 393.457031 1.316407 16.402344-11.628907 7.859375-11.929687-7.859375 1.320313-16.390625 4.460937-55.640625 2.917969-36.300781h6.171875l2.910156 36.3125zm0 0" fill="#00acea"/><path d="m87.859375 337.828125-4.460937 55.640625-.308594-.019531h-75.660156v-92c0-20.988281 17.011718-38 38-38h12l30 74.347656zm0 0" fill="#00efd1"/><g fill="#083863"><path d="m296.570312 254.609375v-17.039063c35.179688-23.550781 50.78125-67.363281 38.40625-107.851562-12.375-40.484375-49.804687-68.085938-92.140624-67.945312-42.332032.140624-79.578126 27.996093-91.679688 68.5625-12.101562 40.570312 3.792969 84.277343 39.132812 107.589843v16.683594c0 29.347656 23.792969 53.136719 53.140626 53.136719 29.347656 0 53.140624-23.789063 53.140624-53.136719zm-135.421874-96.8125c.003906-38.207031 26.398437-71.351563 63.640624-79.90625 37.238282-8.554687 75.449219 9.742187 92.132813 44.121094 16.679687 34.375 7.410156 75.714843-22.355469 99.675781-6.492187-22.949219-27.480468-38.765625-51.328125-38.679688-23.851562.085938-44.722656 16.046876-51.054687 39.042969-19.691406-15.492187-31.140625-39.195312-31.035156-64.253906zm82.28125 135.949219c-21.609376-.023438-39.117188-17.53125-39.140626-39.136719v-18.460937c0-.617188.015626-1.226563.042969-1.8125.980469-20.828126 18.113281-37.234376 38.964844-37.304688 20.851563-.074219 38.097656 16.210938 39.21875 37.035156.035156.691406.054687 1.382813.054687 2.082032v18.460937c-.027343 21.605469-17.535156 39.113281-39.140624 39.136719zm0 0"/><path d="m410.554688 259.179688-30.199219-.113282h-.027344c-2.257813 0-4.375 1.089844-5.691406 2.925782-1.3125 1.832031-1.660157 4.191406-.9375 6.328124l7.25 21.347657c.964843 2.839843 3.632812 4.75 6.628906 4.75h15.699219c2.996094 0 5.660156-1.90625 6.625-4.738281l7.25-21.242188c.730468-2.132812.386718-4.484375-.921875-6.320312-1.308594-1.835938-3.421875-2.929688-5.675781-2.9375zm-12.28125 21.238281h-5.679688l-2.484375-7.3125 10.644531.039062zm0 0"/><path d="m108.554688 259.179688-30.199219-.113282c-2.257813.015625-4.375 1.09375-5.710938 2.914063-1.320312 1.835937-1.671875 4.195312-.945312 6.339843l7.25 21.347657c.964843 2.839843 3.628906 4.75 6.628906 4.75h15.699219c2.996094 0 5.65625-1.90625 6.625-4.738281l7.25-21.242188c.726562-2.132812.382812-4.484375-.925782-6.320312-1.308593-1.835938-3.417968-2.929688-5.675781-2.9375zm-12.28125 21.238281h-5.679688l-2.484375-7.3125 10.644531.039062zm0 0"/><path d="m92.429688 251.828125c23.863281-.027344 43.203124-19.367187 43.230468-43.230469v-14.488281c-.003906-21.128906-15.273437-39.164063-36.113281-42.648437v-9.414063l26.445313-2.550781c3.03125-.292969 5.523437-2.511719 6.167968-5.488282 3.003906-13.511718 8.429688-26.367187 16.011719-37.945312 1.652344-2.566406 1.457031-5.90625-.492187-8.257812l-16.851563-20.363282 22.175781-22.175781 20.347656 16.863281c2.382813 1.972656 5.777344 2.148438 8.351563.433594 11.523437-7.628906 24.363281-13.039062 37.867187-15.960938 2.976563-.644531 5.195313-3.140624 5.488282-6.171874l2.539062-26.433594h29.902344l2.550781 26.433594c.292969 3.03125 2.511719 5.523437 5.488281 6.167968 13.5 2.921875 26.339844 8.335938 37.855469 15.960938 2.574219 1.71875 5.96875 1.542968 8.351563-.429688l20.359375-16.867187 22.179687 22.175781-16.867187 20.363281c-1.949219 2.355469-2.144531 5.699219-.488281 8.265625 7.589843 11.574219 13.015624 24.429688 16.019531 37.941406.644531 2.976563 3.140625 5.195313 6.171875 5.488282l26.429687 2.550781v9.742187c-20.003906 4.230469-34.324219 21.871094-34.351562 42.320313v14.488281c0 23.875 19.355469 43.230469 43.230469 43.230469s43.230468-19.355469 43.230468-43.230469v-14.488281c0-21.898437-16.367187-40.335937-38.109375-42.929687v-15.492188c0-3.605469-2.738281-6.621094-6.328125-6.96875l-27.785156-2.679688c-3.09375-11.664062-7.8125-22.835937-14.023438-33.183593l17.714844-21.390625c2.304688-2.785156 2.113282-6.863282-.441406-9.417969l-31.1875-31.1875c-2.554688-2.554687-6.632812-2.746094-9.417969-.441406l-21.351562 17.683593c-10.347657-6.234374-21.539063-10.949218-33.230469-13.992187l-2.671875-27.78125c-.347656-3.589844-3.363281-6.328125-6.96875-6.328125h-42.617187c-3.609376 0-6.625 2.738281-6.96875 6.328125l-2.671876 27.785156c-11.691406 3.042969-22.886718 7.753907-33.234374 13.988281l-21.339844-17.683593c-2.78125-2.304688-6.863282-2.113281-9.417969.441406l-31.1875 31.191406c-2.554687 2.550781-2.746094 6.628907-.441406 9.414063l17.710937 21.398437c-6.207031 10.347657-10.921875 21.519531-14.015625 33.183594l-27.800781 2.679687c-3.589844.34375-6.328125 3.359376-6.328125 6.964844v15.734375c-20.933594 3.40625-36.320313 21.472657-36.347656 42.683594v14.488281c.027343 23.863282 19.363281 43.203125 43.230469 43.230469zm331.230468-57.71875v14.488281c0 16.144532-13.089844 29.230469-29.230468 29.230469-16.144532 0-29.230469-13.085937-29.230469-29.230469v-14.488281c0-16.144531 13.085937-29.230469 29.230469-29.230469 16.140624 0 29.230468 13.085938 29.230468 29.230469zm-360.460937 0c0-16.144531 13.085937-29.230469 29.230469-29.230469 16.140624 0 29.230468 13.085938 29.230468 29.230469v14.488281c0 16.144532-13.089844 29.230469-29.230468 29.230469-16.144532 0-29.230469-13.085937-29.230469-29.230469zm0 0"/><path d="m441.429688 256.449219h-12c-2.941407 0-5.570313 1.835937-6.578126 4.597656l-16.5 45.238281-.425781-5.316406c-.289062-3.636719-3.328125-6.441406-6.976562-6.441406h-6.171875c-3.648438 0-6.683594 2.800781-6.976563 6.4375l-.613281 7.617187-19.269531-47.753906c-1.066407-2.648437-3.636719-4.378906-6.488281-4.378906h-12c-24.84375.027343-44.972657 20.15625-45 45v16.007812h-15.292969c-3.222657 0-6.03125 2.203125-6.796875 5.335938l-17.609375 71.972656-1.257813-27.160156c-.171875-3.71875-3.222656-6.652344-6.945312-6.675781l-18.457032-.132813h-.050781c-3.71875 0-6.785156 2.90625-6.988281 6.617187l-1.707031 31.277344-20.855469-76.085937c-.832031-3.039063-3.597656-5.148438-6.75-5.148438h-15.289062v-16.011719c-.027344-24.839843-20.160157-44.96875-45-45h-12c-2.941407 0-5.570313 1.839844-6.578126 4.601563l-16.5 45.234375-.425781-5.3125c-.289062-3.640625-3.328125-6.441406-6.976562-6.441406h-6.171875c-3.648438 0-6.683594 2.800781-6.976563 6.4375l-.613281 7.613281-19.269531-47.75c-1.066407-2.648437-3.636719-4.382813-6.488281-4.382813h-12c-24.84375.03125-44.972657 20.160157-45 45v92c0 3.867188 3.132812 7 7 7h68.378906l-.707032 8.851563c-.207031 2.542969.992188 5 3.125 6.40625l11.929688 7.859375c2.363281 1.554688 5.425781 1.539062 7.769531-.046875l11.628907-7.859375c2.09375-1.414062 3.261718-3.84375 3.058593-6.359375l-.707031-8.851563h16.269531v69.5625c0 3.863282 3.132813 7 7 7h87.867188l-.027344.464844c-.136719 2.496094 1.070313 4.875 3.160156 6.242188l15.289063 10c2.351562 1.539062 5.394531 1.519531 7.730468-.042969l14.917969-10c2.078125-1.390625 3.253907-3.785156 3.089844-6.277344l-.027344-.386719h84.5c3.867188 0 7-3.136718 7-7v-69.5625h19.132813l-.710938 8.855469c-.199218 2.542969.996094 4.992188 3.128906 6.398438l11.929688 7.859375c2.359375 1.558594 5.425781 1.539062 7.769531-.042969l11.632813-7.863281c2.089844-1.410156 3.257812-3.839844 3.058594-6.355469l-.710938-8.851563h65.523438c3.863281 0 7-3.136718 7-7v-92c-.03125-24.839843-20.160157-44.96875-45-44.996093zm-427 130v-85c.019531-17.113281 13.886718-30.980469 31-31h7.273437l27.976563 69.332031-3.746094 46.667969zm79.53125 22.855469-4.574219-3.011719 4.472656-55.707031 4.472656 55.761718zm16.820312-22.855469-3.742188-46.675781 25.289063-69.324219h7.101563c17.113281.019531 30.980468 13.886719 31 31v17.597656c-24.789063 6.070313-42.234376 28.28125-42.25 53.800781v13.601563zm31.402344 76.558593v-90.160156c.007812-20.898437 15.589844-38.515625 36.328125-41.078125 1.683593-.210937 3.375-.316406 5.070312-.3125h10.800781l30.53125 111.410157-1.101562 20.140624zm103.070312 16.457032-8.03125-5.253906 1.742188-31.925782.285156-.074218-.234375-.855469 3.632813-66.511719 5.148437.039062 3.300781 71.449219c0 .046875 0 .097657.007813.144531l1.863281 27.816407zm99.425782-16.457032h-78.4375l-1.164063-17.394531-.0625-1.308593 27.613281-112.847657h10.644532c1.75 0 3.5.109375 5.238281.328125 20.664062 2.648438 36.148437 20.230469 36.164062 41.0625v90.160156zm14-76.558593v-13.601563c-.035157-25.515625-17.46875-47.722656-42.25-53.804687v-17.59375c.019531-17.113281 13.886718-30.980469 31-31h7.273437l27.976563 69.328125-3.746094 46.671875zm37.277343 22.855469-4.570312-3.015626 4.472656-55.722656 4.476563 55.78125zm76.472657-22.855469h-59.648438l-3.742188-46.675781 25.289063-69.324219h7.101563c17.113281.019531 30.980468 13.886719 31 31zm0 0"/><path d="m264.5 320.929688-38.457031-.132813h-.023438c-2.425781 0-4.679687 1.257813-5.957031 3.320313-1.273438 2.0625-1.390625 4.640624-.304688 6.8125l10 20c1.175782 2.355468 3.578126 3.851562 6.210938 3.867187l18.460938.132813h.050781c2.648437 0 5.074219-1.5 6.257812-3.871094l10-20c1.085938-2.167969.96875-4.738282-.300781-6.800782s-3.515625-3.320312-5.9375-3.328124zm-14.332031 19.96875-9.808594-.070313-3-5.992187 15.808594.054687zm0 0"/></g></svg>