<?xml version="1.0" encoding="utf-8"?>
<!-- Generator: Adobe Illustrator 22.0.1, SVG Export Plug-In . SVG Version: 6.00 Build 0)  -->
<svg version="1.1" id="Layer_1" xmlns="http://www.w3.org/2000/svg" xmlns:xlink="http://www.w3.org/1999/xlink" x="0px" y="0px"
	 viewBox="0 0 1743.4 994.7" style="enable-background:new 0 0 1743.4 994.7;" xml:space="preserve">
<style type="text/css">
	.st0{clip-path:url(#SVGID_2_);fill:#F2F2F2;}
	.st1{opacity:0.3;clip-path:url(#SVGID_2_);}
	.st2{fill:none;stroke:#00758E;stroke-miterlimit:10;}
	.st3{opacity:0.2;clip-path:url(#SVGID_2_);}
	.st4{clip-path:url(#SVGID_2_);}
	.st5{fill:#00758E;}
	.st6{fill:none;stroke:#00758E;stroke-width:2.4864;stroke-miterlimit:10;}
	.st7{fill:none;stroke:#00758E;stroke-width:1.7556;stroke-miterlimit:10;}
	.st8{fill:none;stroke:#00758E;stroke-width:1.984;stroke-miterlimit:10;}
	.st9{fill:none;stroke:#00758E;stroke-width:1.8751;stroke-miterlimit:10;}
	.st10{fill:none;stroke:#00758E;stroke-width:2.8757;stroke-miterlimit:10;}
	.st11{fill:none;stroke:#00758E;stroke-width:2.2645;stroke-miterlimit:10;}
	.st12{fill:none;stroke:#00758E;stroke-width:2.2889;stroke-miterlimit:10;}
	.st13{opacity:0.1;clip-path:url(#SVGID_2_);}
	.st14{display:none;}
	.st15{display:inline;fill:none;}
	.st16{display:inline;fill:#015C68;}
	.st17{font-family:'FranklinGothic-Demi';}
	.st18{font-size:130px;}
	.st19{letter-spacing:6.3;}
	.st20{display:inline;fill:#424242;}
	.st21{font-family:'MyriadPro-Regular';}
	.st22{font-size:80px;}
	.st23{letter-spacing:5.3;}
</style>
<g>
	<g>
		<defs>
			<rect id="SVGID_1_" x="1.2" y="-1.7" width="1744.9" height="1000"/>
		</defs>
		<clipPath id="SVGID_2_">
			<use xlink:href="#SVGID_1_"  style="overflow:visible;"/>
		</clipPath>
		<rect x="1.2" y="-1.7" class="st0" width="1744.9" height="1000"/>
		<g class="st1">
			<polygon class="st2" points="1333.3,775.2 1013.8,806.7 1173.5,718.2 			"/>
			<polygon class="st2" points="1081.3,595.2 1013.8,806.7 1173.5,718.2 			"/>
			<polygon class="st2" points="1105.1,731.7 941.8,1069.7 1197.3,806.7 			"/>
			<polygon class="st2" points="1013.8,806.7 1081.3,595.2 946.3,775.2 			"/>
			<polygon class="st2" points="1013.8,806.7 916.4,947 946.3,775.2 			"/>
			<polygon class="st2" points="1013.8,806.7 916.4,947 1093.7,1034.4 			"/>
			<polygon class="st2" points="673.6,665.1 1081.3,595.2 946.3,775.2 			"/>
			<polygon class="st2" points="946.3,775.2 673.6,665.1 918.1,806.7 			"/>
			<polygon class="st2" points="946.3,775.2 673.6,665.1 788.8,498.3 			"/>
			<polygon class="st2" points="580.8,395.3 673.6,665.1 788.8,498.3 			"/>
			<polyline class="st2" points="788.8,498.3 819.8,580.3 673.6,665.1 			"/>
			<polygon class="st2" points="580.8,395.3 788.8,498.3 771.8,311.3 			"/>
			<polygon class="st2" points="580.8,395.3 668.8,293.3 771.8,311.3 			"/>
			<polygon class="st2" points="965.1,361.3 788.8,498.3 771.8,311.3 			"/>
			<polygon class="st2" points="965.1,361.3 820.8,253.3 771.8,311.3 			"/>
			<polygon class="st2" points="843.9,595.2 788.8,498.3 771.8,311.3 			"/>
			<polygon class="st2" points="946.3,775.2 868.4,971.7 725.1,854.3 			"/>
			<polygon class="st2" points="946.3,775.2 923.8,1039.1 846.4,806.7 			"/>
			<polygon class="st2" points="1173.5,718.2 1333.3,775.2 1081.3,595.2 			"/>
			<polygon class="st2" points="720.8,420.3 1117.8,665.1 1105.1,731.7 			"/>
			<polygon class="st2" points="1169.6,835.2 965.1,815.3 852.8,571.3 			"/>
			<polyline class="st2" points="1093.7,1034.4 1416.8,835.2 994.8,926.3 1093.7,1030.3 1197.3,1039.1 			"/>
			<polygon class="st2" points="1197.3,1039.1 1197.3,806.7 1429.8,1034.4 			"/>
			<polygon class="st2" points="1290.8,642.3 946.3,697.3 1093.7,1030.3 			"/>
			<polyline class="st2" points="946.3,697.3 1011.2,554.3 1290.8,642.3 			"/>
			<polygon class="st2" points="607.8,498.3 668.8,293.3 436.8,447.3 			"/>
			<polygon class="st2" points="436.8,447.3 413.8,384.3 634.8,351.3 			"/>
			<polygon class="st2" points="543.8,311.3 852.8,571.3 534.1,366.4 			"/>
			<polygon class="st2" points="676.3,32.3 543.8,311.3 771.8,311.3 			"/>
			<polygon class="st2" points="474.8,10.3 467.8,253.3 676.3,32.3 			"/>
			<polygon class="st2" points="474.8,10.3 664.2,-47.7 676.3,32.3 			"/>
			<polygon class="st2" points="793.8,109.3 467.8,253.3 298.8,114.3 			"/>
			<polygon class="st2" points="634.8,351.3 314.8,82.3 572,104.3 			"/>
			<polygon class="st2" points="298.8,114.3 413.8,384.3 634.8,351.3 			"/>
		</g>
		<g class="st3">
			<polygon class="st2" points="1463.8,256.5 1144.3,288 1304,199.6 			"/>
			<polygon class="st2" points="1211.8,76.6 1144.3,288 1304,199.6 			"/>
			<polygon class="st2" points="1235.6,213 1072.3,551 1327.8,288 			"/>
			<polygon class="st2" points="1144.3,288 1211.8,76.6 1076.8,256.5 			"/>
			<polygon class="st2" points="1144.3,288 1046.9,428.4 1076.8,256.5 			"/>
			<polygon class="st2" points="1144.3,288 1046.9,428.4 1224.2,515.7 			"/>
			<polygon class="st2" points="804.1,146.5 1211.8,76.6 1076.8,256.5 			"/>
			<polygon class="st2" points="1076.8,256.5 804.1,146.5 1048.6,288 			"/>
			<polygon class="st2" points="1076.8,256.5 804.1,146.5 919.3,-20.3 			"/>
			<polygon class="st2" points="711.3,-123.3 804.1,146.5 919.3,-20.3 			"/>
			<polyline class="st2" points="919.3,-20.3 950.3,61.7 804.1,146.5 			"/>
			<polygon class="st2" points="974.4,76.6 919.3,-20.3 902.3,-207.3 			"/>
			<polygon class="st2" points="1076.8,256.5 998.9,453 855.6,335.7 			"/>
			<polygon class="st2" points="1076.8,256.5 1054.3,520.4 976.9,288 			"/>
			<polygon class="st2" points="1304,199.6 1463.8,256.5 1211.8,76.6 			"/>
			<polygon class="st2" points="851.3,-98.3 1248.3,146.5 1235.6,213 			"/>
			<polygon class="st2" points="1300.1,316.6 1095.6,296.7 983.3,52.7 			"/>
			<polyline class="st2" points="1224.2,515.7 1547.3,316.6 1125.3,407.7 1224.2,511.7 1327.8,520.4 			"/>
			<polygon class="st2" points="1327.8,520.4 1327.8,288 1560.3,515.7 			"/>
			<polygon class="st2" points="1421.3,123.7 1076.8,178.7 1224.2,511.7 			"/>
			<polyline class="st2" points="1076.8,178.7 1141.7,35.7 1421.3,123.7 			"/>
		</g>
		<g class="st3">
			<polygon class="st2" points="763.4,792.8 443.9,824.3 603.7,735.8 			"/>
			<polygon class="st2" points="511.4,612.8 443.9,824.3 603.7,735.8 			"/>
			<polygon class="st2" points="535.3,749.2 371.9,1087.2 627.5,824.3 			"/>
			<polygon class="st2" points="443.9,824.3 511.4,612.8 376.4,792.8 			"/>
			<polygon class="st2" points="443.9,824.3 346.6,964.6 376.4,792.8 			"/>
			<polygon class="st2" points="443.9,824.3 346.6,964.6 523.8,1051.9 			"/>
			<polygon class="st2" points="103.7,682.7 511.4,612.8 376.4,792.8 			"/>
			<polygon class="st2" points="376.4,792.8 103.7,682.7 348.2,824.3 			"/>
			<polygon class="st2" points="376.4,792.8 103.7,682.7 218.9,515.9 			"/>
			<polygon class="st2" points="10.9,412.9 103.7,682.7 218.9,515.9 			"/>
			<polyline class="st2" points="218.9,515.9 249.9,597.9 103.7,682.7 			"/>
			<polygon class="st2" points="10.9,412.9 218.9,515.9 201.9,328.9 			"/>
			<polygon class="st2" points="10.9,412.9 98.9,310.9 201.9,328.9 			"/>
			<polygon class="st2" points="395.3,378.9 218.9,515.9 201.9,328.9 			"/>
			<polygon class="st2" points="395.3,378.9 250.9,270.9 201.9,328.9 			"/>
			<polygon class="st2" points="274,612.8 218.9,515.9 201.9,328.9 			"/>
			<polygon class="st2" points="376.4,792.8 298.6,989.2 155.3,871.9 			"/>
			<polygon class="st2" points="376.4,792.8 353.9,1056.6 276.6,824.3 			"/>
			<polygon class="st2" points="603.7,735.8 763.4,792.8 511.4,612.8 			"/>
			<polygon class="st2" points="150.9,437.9 547.9,682.7 535.3,749.2 			"/>
			<polygon class="st2" points="599.8,852.8 395.3,832.9 282.9,588.9 			"/>
			<polyline class="st2" points="523.8,1051.9 846.9,852.8 424.9,943.9 523.8,1047.9 627.5,1056.6 			"/>
			<polygon class="st2" points="627.5,1056.6 627.5,824.3 859.9,1051.9 			"/>
			<polygon class="st2" points="720.9,659.9 376.4,714.9 523.8,1047.9 			"/>
			<polyline class="st2" points="376.4,714.9 441.4,571.9 720.9,659.9 			"/>
			<polygon class="st2" points="37.9,515.9 98.9,310.9 -133.1,464.9 			"/>
			<polygon class="st2" points="-133.1,464.9 -156.1,401.9 64.9,368.9 			"/>
			<polygon class="st2" points="-26.1,328.9 282.9,588.9 -35.8,383.9 			"/>
			<polygon class="st2" points="106.4,49.9 -26.1,328.9 201.9,328.9 			"/>
			<polygon class="st2" points="-95.1,27.9 -102.1,270.9 106.4,49.9 			"/>
			<polygon class="st2" points="-95.1,27.9 94.3,-30.1 106.4,49.9 			"/>
			<polygon class="st2" points="223.9,126.9 -102.1,270.9 -271.1,131.9 			"/>
			<polygon class="st2" points="64.9,368.9 -255.1,99.9 2.2,121.9 			"/>
			<polygon class="st2" points="-271.1,131.9 -156.1,401.9 64.9,368.9 			"/>
		</g>
		<g class="st4">
			<path class="st5" d="M719.2,854.3c0-3.3,2.6-5.9,5.9-5.9s5.9,2.6,5.9,5.9c0,3.2-2.6,5.9-5.9,5.9S719.2,857.6,719.2,854.3z"/>
			<path class="st5" d="M1005.7,806.7c0-4.4,3.6-8,8-8c4.4,0,8,3.6,8,8c0,4.4-3.6,8-8,8C1009.3,814.8,1005.7,811.2,1005.7,806.7z"/>
			<circle class="st5" cx="918.5" cy="806" r="6.2"/>
			<path class="st5" d="M940.1,775.2c0-3.4,2.8-6.2,6.2-6.2c3.4,0,6.2,2.8,6.2,6.2c0,3.4-2.8,6.2-6.2,6.2
				C942.9,781.4,940.1,778.6,940.1,775.2z"/>
			<circle class="st5" cx="965.1" cy="815.3" r="9.8"/>
			<path class="st5" d="M861.9,971.7c0-3.3,2.6-5.9,5.9-5.9s5.9,2.6,5.9,5.9c0,3.2-2.6,5.9-5.9,5.9S861.9,974.9,861.9,971.7z"/>
			<path class="st5" d="M1088.5,1032.6c0-2.8,2.3-5.1,5.1-5.1s5.1,2.3,5.1,5.1s-2.3,5.1-5.1,5.1S1088.5,1035.4,1088.5,1032.6z"/>
			
				<ellipse transform="matrix(0.7071 -0.7071 0.7071 0.7071 -175.7305 1247.6935)" class="st5" cx="1418.2" cy="836" rx="7.7" ry="7.7"/>
			<path class="st5" d="M939.8,697.3c0-3.6,2.9-6.5,6.5-6.5c3.6,0,6.5,2.9,6.5,6.5s-2.9,6.5-6.5,6.5
				C942.7,703.8,939.8,700.9,939.8,697.3z"/>
			<path class="st5" d="M1329.8,775.2c0-3.6,2.9-6.5,6.5-6.5c3.6,0,6.5,2.9,6.5,6.5s-2.9,6.5-6.5,6.5
				C1332.7,781.7,1329.8,778.8,1329.8,775.2z"/>
			<path class="st5" d="M1165.3,719.1c0-4,3.3-7.3,7.3-7.3c4,0,7.3,3.3,7.3,7.3c0,4.1-3.3,7.3-7.3,7.3
				C1168.6,726.4,1165.3,723.1,1165.3,719.1z"/>
			<circle class="st5" cx="1105.7" cy="731.7" r="7.3"/>
			<circle class="st5" cx="1011.2" cy="554.3" r="7.3"/>
			<circle class="st5" cx="1120.5" cy="585.8" r="7.3"/>
			<circle class="st5" cx="1119.1" cy="670.2" r="8.7"/>
			<circle class="st5" cx="1194.8" cy="806.7" r="9"/>
			<path class="st5" d="M664.4,665.1c0-5.1,4.1-9.2,9.2-9.2c5.1,0,9.2,4.1,9.2,9.2c0,5.1-4.1,9.2-9.2,9.2
				C668.5,674.3,664.4,670.2,664.4,665.1z"/>
			<path class="st5" d="M847.5,571.3c0-5.1,4.1-9.2,9.2-9.2s9.2,4.1,9.2,9.2c0,5.1-4.1,9.2-9.2,9.2S847.5,576.4,847.5,571.3z"/>
			<path class="st5" d="M706.1,417.6c0-6.6,5.4-12,12-12c6.6,0,12,5.4,12,12c0,6.6-5.4,12-12,12
				C711.4,429.6,706.1,424.2,706.1,417.6z"/>
			<path class="st5" d="M765.4,311.3c0-3.5,2.8-6.3,6.3-6.3c3.5,0,6.3,2.8,6.3,6.3c0,3.5-2.8,6.3-6.3,6.3
				C768.3,317.7,765.4,314.8,765.4,311.3z"/>
			<path class="st5" d="M816.2,253.3c0-2.5,2.1-4.6,4.6-4.6s4.6,2.1,4.6,4.6c0,2.5-2.1,4.6-4.6,4.6S816.2,255.9,816.2,253.3z"/>
			<path class="st5" d="M664.2,292.6c0-2.9,2.4-5.3,5.3-5.3c2.9,0,5.3,2.4,5.3,5.3c0,2.9-2.4,5.3-5.3,5.3
				C666.6,297.9,664.2,295.5,664.2,292.6z"/>
			<path class="st5" d="M573.9,395.3c0-3.8,3.1-6.8,6.8-6.8s6.8,3.1,6.8,6.8c0,3.8-3.1,6.8-6.8,6.8S573.9,399.1,573.9,395.3z"/>
			<path class="st5" d="M536.9,311.3c0-3.8,3.1-6.8,6.8-6.8s6.8,3.1,6.8,6.8c0,3.8-3.1,6.8-6.8,6.8S536.9,315.1,536.9,311.3z"/>
			<path class="st5" d="M669.4,32.3c0-3.8,3.1-6.8,6.8-6.8s6.8,3.1,6.8,6.8c0,3.8-3.1,6.8-6.8,6.8S669.4,36.1,669.4,32.3z"/>
			<path class="st5" d="M462.5,7.4c0-5.4,4.4-9.8,9.8-9.8c5.4,0,9.8,4.4,9.8,9.8c0,5.4-4.4,9.8-9.8,9.8
				C466.9,17.2,462.5,12.8,462.5,7.4z"/>
			<path class="st5" d="M305,82.3c0-5.4,4.4-9.8,9.8-9.8c5.4,0,9.8,4.4,9.8,9.8s-4.4,9.8-9.8,9.8C309.4,92.1,305,87.7,305,82.3z"/>
			<path class="st5" d="M559.3,102.8c0-6.2,5-11.3,11.3-11.3c6.2,0,11.3,5,11.3,11.3c0,6.2-5,11.3-11.3,11.3
				C564.3,114.1,559.3,109.1,559.3,102.8z"/>
			<path class="st5" d="M786.9,109.3c0-3.8,3.1-6.8,6.8-6.8s6.8,3.1,6.8,6.8c0,3.8-3.1,6.8-6.8,6.8S786.9,113.1,786.9,109.3z"/>
			<path class="st5" d="M525.2,365.4c0-4.3,3.5-7.9,7.9-7.9c4.3,0,7.9,3.5,7.9,7.9c0,4.3-3.5,7.9-7.9,7.9
				C528.7,373.2,525.2,369.7,525.2,365.4z"/>
			<path class="st5" d="M954.4,359.2c0-4.7,3.8-8.5,8.5-8.5c4.7,0,8.5,3.8,8.5,8.5s-3.8,8.5-8.5,8.5
				C958.2,367.7,954.4,363.9,954.4,359.2z"/>
			<path class="st5" d="M814.9,580.3c0-2.7,2.2-4.9,4.9-4.9s4.9,2.2,4.9,4.9c0,2.7-2.2,4.9-4.9,4.9S814.9,583,814.9,580.3z"/>
			<path class="st5" d="M759.4,612.8c0-2.7,2.2-4.9,4.9-4.9s4.9,2.2,4.9,4.9s-2.2,4.9-4.9,4.9S759.4,615.5,759.4,612.8z"/>
			<path class="st5" d="M460.3,253.3c0-3.9,3.3-7.1,7.5-7.1c4.1,0,7.5,3.2,7.5,7.1c0,3.9-3.3,7.1-7.5,7.1
				C463.6,260.4,460.3,257.3,460.3,253.3z"/>
		</g>
		<g class="st1">
			<path class="st5" d="M804.1,284.9c-0.5,3.2-3.6,5.4-6.8,4.8c-3.2-0.5-5.4-3.6-4.8-6.8c0.5-3.2,3.6-5.4,6.8-4.8
				C802.5,278.7,804.6,281.7,804.1,284.9z"/>
			<path class="st5" d="M513.6,285.1c-0.7,4.4-4.9,7.3-9.2,6.6c-4.4-0.7-7.3-4.9-6.6-9.2c0.7-4.4,4.9-7.3,9.2-6.6
				C511.4,276.6,514.4,280.8,513.6,285.1z"/>
			<path class="st5" d="M605.7,301.1c-0.6,3.4-3.8,5.7-7.1,5.1c-3.4-0.6-5.7-3.8-5.1-7.1c0.6-3.4,3.8-5.7,7.1-5.1
				C604,294.6,606.3,297.8,605.7,301.1z"/>
			<path class="st5" d="M573.3,326.9c-0.6,3.4-3.8,5.7-7.1,5.1c-3.4-0.6-5.7-3.8-5.1-7.1c0.6-3.4,3.8-5.7,7.1-5.1
				C571.5,320.4,573.8,323.6,573.3,326.9z"/>
			<path class="st5" d="M564.8,284.9c-0.9,5.4-5.9,9-11.3,8.1c-5.4-0.9-9-5.9-8.1-11.3c0.9-5.4,5.9-9,11.3-8.1
				C562.1,274.4,565.7,279.5,564.8,284.9z"/>
			<path class="st5" d="M682.5,145.9c-0.5,3.2-3.6,5.4-6.8,4.8c-3.2-0.5-5.4-3.6-4.8-6.8c0.5-3.2,3.6-5.4,6.8-4.8
				C680.9,139.6,683,142.7,682.5,145.9z"/>
			<path class="st5" d="M468.8,48.8c-0.5,2.8-3.1,4.7-5.9,4.2c-2.8-0.5-4.7-3.1-4.2-5.9c0.5-2.8,3.1-4.7,5.9-4.2
				C467.4,43.3,469.3,46,468.8,48.8z"/>
			<path class="st5" d="M119.1,190.2c-0.7,4.2-4.7,7-8.9,6.3c-4.2-0.7-7-4.7-6.3-8.9c0.7-4.2,4.7-7,8.9-6.3
				C116.9,182,119.7,186,119.1,190.2z"/>
			<path class="st5" d="M560.8,403.8c-0.6,3.5-3.9,5.9-7.4,5.3c-3.5-0.6-5.9-3.9-5.3-7.4c0.6-3.5,3.9-5.9,7.4-5.3
				C559,397,561.4,400.3,560.8,403.8z"/>
			<path class="st5" d="M188.8,263.3c-0.6,3.5-3.9,5.9-7.4,5.3c-3.5-0.6-5.9-3.9-5.3-7.4c0.6-3.5,3.9-5.9,7.4-5.3
				C187,256.5,189.4,259.8,188.8,263.3z"/>
			<path class="st5" d="M341.9,345.5c-0.7,4-4.4,6.7-8.4,6c-4-0.7-6.7-4.4-6-8.4c0.7-4,4.4-6.7,8.4-6
				C339.9,337.8,342.6,341.6,341.9,345.5z"/>
			<path class="st5" d="M410.1,344.1c-0.7,4-4.4,6.7-8.4,6c-4-0.7-6.7-4.4-6-8.4c0.7-4,4.4-6.7,8.4-6
				C408,336.3,410.7,340.1,410.1,344.1z"/>
			<path class="st5" d="M474.3,534.4c-0.7,4-4.4,6.7-8.4,6c-4-0.7-6.7-4.4-6-8.4c0.7-4,4.4-6.7,8.4-6
				C472.3,526.7,475,530.4,474.3,534.4z"/>
			<path class="st5" d="M371.6,485.5c-0.7,4-4.4,6.7-8.4,6c-4-0.7-6.7-4.4-6-8.4c0.7-4,4.4-6.7,8.4-6
				C369.5,477.7,372.2,481.5,371.6,485.5z"/>
			<path class="st5" d="M388.1,402.7c-0.8,4.7-5.3,8-10,7.2c-4.7-0.8-8-5.3-7.2-10c0.8-4.7,5.3-8,10-7.2
				C385.6,393.5,388.9,398,388.1,402.7z"/>
			<path class="st5" d="M335.9,255.7c-0.8,4.9-5.4,8.2-10.3,7.4c-4.9-0.8-8.2-5.4-7.4-10.3c0.8-4.9,5.4-8.2,10.3-7.4
				C333.4,246.3,336.7,250.9,335.9,255.7z"/>
			<path class="st5" d="M827.3,480.5c-0.8,5-5.6,8.4-10.6,7.6c-5-0.8-8.4-5.6-7.6-10.6c0.8-5,5.6-8.4,10.6-7.6
				C824.8,470.8,828.2,475.5,827.3,480.5z"/>
			<path class="st5" d="M574.1,586c-0.8,5-5.6,8.4-10.6,7.6c-5-0.8-8.4-5.6-7.6-10.6c0.8-5,5.6-8.4,10.6-7.6
				C571.5,576.2,574.9,581,574.1,586z"/>
			<path class="st5" d="M745.8,718c-1.1,6.5-7.2,10.9-13.7,9.8c-6.5-1.1-10.9-7.2-9.8-13.7c1.1-6.5,7.2-10.9,13.7-9.8
				C742.5,705.3,746.9,711.4,745.8,718z"/>
			<path class="st5" d="M669.9,813.1c-0.6,3.4-3.8,5.8-7.3,5.2c-3.4-0.6-5.8-3.8-5.2-7.3c0.6-3.4,3.8-5.8,7.3-5.2
				C668.1,806.4,670.4,809.6,669.9,813.1z"/>
			<path class="st5" d="M610.3,862c-0.4,2.5-2.8,4.2-5.3,3.8c-2.5-0.4-4.2-2.8-3.8-5.3c0.4-2.5,2.8-4.2,5.3-3.8
				C609.1,857.2,610.7,859.5,610.3,862z"/>
			<path class="st5" d="M766.7,848.1c-0.5,2.9-3.2,4.9-6.1,4.4c-2.9-0.5-4.9-3.2-4.4-6.1c0.5-2.9,3.2-4.9,6.1-4.4
				C765.2,842.5,767.2,845.2,766.7,848.1z"/>
			<path class="st5" d="M872.5,761.5c-0.6,3.7-4.1,6.2-7.9,5.6c-3.7-0.6-6.2-4.1-5.6-7.9c0.6-3.7,4.1-6.2,7.9-5.6
				C870.6,754.2,873.1,757.8,872.5,761.5z"/>
			<path class="st5" d="M895.3,850.4c-0.6,3.7-4.1,6.2-7.9,5.6c-3.7-0.6-6.2-4.1-5.6-7.9c0.6-3.7,4.1-6.2,7.9-5.6
				C893.4,843.1,895.9,846.7,895.3,850.4z"/>
			<path class="st5" d="M794.7,800c-0.7,4.3-4.8,7.2-9,6.5c-4.3-0.7-7.2-4.8-6.5-9c0.7-4.3,4.8-7.2,9-6.5
				C792.5,791.6,795.4,795.7,794.7,800z"/>
			<path class="st5" d="M491.2,735.1c-0.8,4.6-5.2,7.8-9.8,7c-4.6-0.8-7.8-5.2-7-9.8c0.8-4.6,5.2-7.8,9.8-7
				C488.9,726.1,492,730.4,491.2,735.1z"/>
			<path class="st5" d="M665,539.6c-0.4,2.7-2.9,4.5-5.6,4c-2.7-0.4-4.5-2.9-4-5.6c0.4-2.7,2.9-4.5,5.6-4
				C663.6,534.5,665.4,537,665,539.6z"/>
			<path class="st5" d="M725,516.6c-0.4,2.7-2.9,4.5-5.6,4c-2.7-0.4-4.5-2.9-4-5.6c0.4-2.7,2.9-4.5,5.6-4
				C723.7,511.5,725.5,514,725,516.6z"/>
			<path class="st5" d="M961.4,920.1c-0.6,3.9-4.5,6.5-8.5,5.8c-4.1-0.7-6.8-4.4-6.2-8.2c0.6-3.9,4.5-6.5,8.5-5.8
				C959.3,912.6,962.1,916.2,961.4,920.1z"/>
		</g>
		<g class="st4">
			<g>
				<circle class="st6" cx="916.4" cy="947" r="10.2"/>
				<path class="st5" d="M916.4,940.5c3.6,0,6.5,2.9,6.5,6.5c0,3.6-2.9,6.5-6.5,6.5c-3.6,0-6.5-2.9-6.5-6.5
					C909.9,943.4,912.9,940.5,916.4,940.5z"/>
			</g>
			<g>
				<circle class="st6" cx="846.4" cy="806.7" r="10.2"/>
				<path class="st5" d="M846.4,800.2c3.6,0,6.5,2.9,6.5,6.5c0,3.6-2.9,6.5-6.5,6.5c-3.6,0-6.5-2.9-6.5-6.5
					C839.9,803.1,842.9,800.2,846.4,800.2z"/>
			</g>
			<g>
				<path class="st7" d="M850.7,990.2c0-4,3.2-7.2,7.2-7.2c4,0,7.2,3.2,7.2,7.2c0,4-3.2,7.2-7.2,7.2
					C853.9,997.4,850.7,994.2,850.7,990.2z"/>
				<path class="st5" d="M857.9,985.6c2.5,0,4.6,2.1,4.6,4.6c0,2.5-2.1,4.6-4.6,4.6c-2.5,0-4.6-2.1-4.6-4.6
					C853.3,987.7,855.4,985.6,857.9,985.6z"/>
			</g>
			<g>
				<circle class="st6" cx="1290.8" cy="641.6" r="10.2"/>
				<path class="st5" d="M1290.8,635.1c3.6,0,6.5,2.9,6.5,6.5c0,3.6-2.9,6.5-6.5,6.5c-3.6,0-6.5-2.9-6.5-6.5
					C1284.3,638,1287.2,635.1,1290.8,635.1z"/>
			</g>
			<g>
				<path class="st8" d="M987.6,589.7c0-4.5,3.7-8.2,8.2-8.2c4.5,0,8.2,3.7,8.2,8.2c0,4.5-3.7,8.2-8.2,8.2
					C991.2,597.8,987.6,594.2,987.6,589.7z"/>
				<path class="st5" d="M995.7,584.5c2.9,0,5.2,2.3,5.2,5.2c0,2.9-2.3,5.2-5.2,5.2c-2.9,0-5.2-2.3-5.2-5.2
					C990.5,586.8,992.9,584.5,995.7,584.5z"/>
			</g>
			<g>
				
					<ellipse transform="matrix(0.7071 -0.7071 0.7071 0.7071 -199.4471 605.6866)" class="st9" cx="631.4" cy="543.6" rx="7.7" ry="7.7"/>
				<path class="st5" d="M631.4,538.7c2.7,0,4.9,2.2,4.9,4.9c0,2.7-2.2,4.9-4.9,4.9c-2.7,0-4.9-2.2-4.9-4.9
					C626.5,540.9,628.7,538.7,631.4,538.7z"/>
			</g>
			<g>
				<path class="st10" d="M398.3,380.7c0-6.5,5.3-11.8,11.8-11.8c6.5,0,11.8,5.3,11.8,11.8c0,6.5-5.3,11.8-11.8,11.8
					C403.6,392.5,398.3,387.2,398.3,380.7z"/>
				<path class="st5" d="M410.1,373.2c4.1,0,7.5,3.4,7.5,7.5c0,4.1-3.4,7.5-7.5,7.5c-4.1,0-7.5-3.4-7.5-7.5
					C402.6,376.5,406,373.2,410.1,373.2z"/>
			</g>
			<g>
				<circle class="st11" cx="634.8" cy="351.3" r="9.3"/>
				<path class="st5" d="M634.8,345.4c3.3,0,5.9,2.7,5.9,5.9c0,3.3-2.7,5.9-5.9,5.9s-5.9-2.7-5.9-5.9
					C628.9,348.1,631.5,345.4,634.8,345.4z"/>
			</g>
			<g>
				<path class="st12" d="M289.4,114.1c0-5.2,4.2-9.4,9.4-9.4c5.2,0,9.4,4.2,9.4,9.4c0,5.2-4.2,9.4-9.4,9.4
					C293.6,123.5,289.4,119.3,289.4,114.1z"/>
				<path class="st5" d="M298.8,108.1c3.3,0,6,2.7,6,6c0,3.3-2.7,6-6,6c-3.3,0-6-2.7-6-6C292.8,110.8,295.5,108.1,298.8,108.1z"/>
			</g>
		</g>
		<g class="st13">
			<path class="st5" d="M1108.9,85.6c0,5.8-4.7,10.6-10.6,10.6c-5.8,0-10.6-4.7-10.6-10.6c0-5.8,4.7-10.6,10.6-10.6
				C1104.1,75,1108.9,79.8,1108.9,85.6z"/>
			<path class="st5" d="M594.1,172.3c0,8-6.4,14.5-14.4,14.5c-8,0-14.5-6.4-14.5-14.4c0-8,6.4-14.5,14.4-14.5
				C587.6,157.8,594.1,164.3,594.1,172.3z"/>
			<path class="st5" d="M762,173.3c0,6.2-5,11.2-11.1,11.2c-6.2,0-11.2-5-11.2-11.1c0-6.2,5-11.2,11.1-11.2
				C757,162.1,762,167.1,762,173.3z"/>
			<path class="st5" d="M712.2,228.6c0,6.2-5,11.2-11.1,11.2c-6.2,0-11.2-5-11.2-11.1c0-6.2,5-11.2,11.1-11.2
				C707.2,217.5,712.2,222.5,712.2,228.6z"/>
			<path class="st5" d="M684.8,156.6c0,9.8-7.9,17.7-17.6,17.7c-9.8,0-17.7-7.9-17.7-17.6c0-9.8,7.9-17.7,17.6-17.7
				C676.8,138.9,684.7,146.8,684.8,156.6z"/>
			<path class="st5" d="M444.5-233.4c0,5.1-4.1,9.2-9.2,9.3c-5.1,0-9.2-4.1-9.3-9.2c0-5.1,4.1-9.2,9.2-9.3
				C440.3-242.6,444.5-238.5,444.5-233.4z"/>
			<path class="st5" d="M712.9,368.6c0,6.4-5.2,11.6-11.6,11.6c-6.4,0-11.6-5.2-11.6-11.6c0-6.4,5.2-11.6,11.6-11.6
				C707.7,357,712.9,362.2,712.9,368.6z"/>
			<path class="st5" d="M11.8,230.1c0,6.4-5.2,11.6-11.6,11.6c-6.4,0-11.6-5.2-11.6-11.6c0-6.4,5.2-11.6,11.6-11.6
				C6.5,218.5,11.7,223.6,11.8,230.1z"/>
			<path class="st5" d="M307.6,330.3c0,7.3-5.9,13.2-13.2,13.2c-7.3,0-13.2-5.9-13.2-13.1c0-7.3,5.9-13.2,13.2-13.2
				C301.7,317.2,307.6,323,307.6,330.3z"/>
			<path class="st5" d="M428,307.5c0,7.3-5.9,13.2-13.2,13.2c-7.3,0-13.2-5.9-13.2-13.1c0-7.3,5.9-13.2,13.2-13.2
				C422,294.3,428,300.2,428,307.5z"/>
			<path class="st5" d="M598.4,625.8c0,7.3-5.9,13.2-13.2,13.2c-7.3,0-13.2-5.9-13.2-13.1c0-7.3,5.9-13.2,13.2-13.2
				C592.4,612.7,598.4,618.5,598.4,625.8z"/>
			<path class="st5" d="M401.8,569.6c0,7.3-5.9,13.2-13.2,13.2c-7.3,0-13.2-5.9-13.2-13.2c0-7.3,5.9-13.2,13.2-13.2
				C395.9,556.4,401.8,562.3,401.8,569.6z"/>
			<path class="st5" d="M286,441.3c0,8.6-7,15.7-15.6,15.7c-8.6,0-15.7-7-15.7-15.6c0-8.6,7-15.7,15.6-15.7
				C278.9,425.7,285.9,432.7,286,441.3z"/>
			<path class="st5" d="M270.3,172.9c0,8.9-7.2,16.1-16.1,16.1c-8.9,0-16.1-7.2-16.1-16.1c0-8.9,7.2-16.1,16.1-16.1
				C263.1,156.8,270.3,164,270.3,172.9z"/>
			<path class="st5" d="M1208.2,425.5c0,9.1-7.4,16.6-16.5,16.6c-9.1,0-16.6-7.4-16.6-16.5c0-9.1,7.4-16.6,16.5-16.6
				C1200.7,408.9,1208.1,416.3,1208.2,425.5z"/>
			<path class="st5" d="M651.3,760.3c0,9.1-7.4,16.6-16.5,16.6c-9.1,0-16.6-7.4-16.6-16.5c0-9.1,7.4-16.6,16.5-16.6
				C643.9,743.8,651.3,751.2,651.3,760.3z"/>
			<path class="st5" d="M1134.1,870.5c0,11.9-9.6,21.5-21.4,21.5c-11.9,0-21.5-9.6-21.5-21.4c0-11.9,9.6-21.5,21.4-21.5
				C1124.4,849,1134.1,858.7,1134.1,870.5z"/>
			<path class="st5" d="M1371.7,910c0,6.8-5.5,12.3-12.3,12.3c-6.8,0-12.3-5.5-12.3-12.3c0-6.8,5.5-12.3,12.3-12.3
				C1366.1,897.8,1371.6,903.2,1371.7,910z"/>
			<path class="st5" d="M1201.3,1562.8c0,6.8-5.5,12.3-12.3,12.3c-6.8,0-12.3-5.5-12.3-12.3c0-6.8,5.5-12.3,12.3-12.3
				C1195.8,1550.5,1201.3,1556,1201.3,1562.8z"/>
			<path class="st5" d="M1573.3,1606.8c0,9.7-7.8,17.6-17.5,17.6c-9.7,0-17.6-7.8-17.6-17.5c0-9.7,7.8-17.6,17.5-17.6
				C1565.4,1589.3,1573.3,1597.2,1573.3,1606.8z"/>
			<path class="st5" d="M1856.1,1471.6c0,9.7-7.8,17.6-17.5,17.6c-9.7,0-17.6-7.8-17.6-17.5c0-9.7,7.8-17.6,17.5-17.6
				C1848.2,1454.1,1856.1,1461.9,1856.1,1471.6z"/>
			<path class="st5" d="M1399.1,1435.7c0,11.2-9,20.3-20.2,20.3c-11.2,0-20.3-9-20.3-20.2c0-11.2,9-20.3,20.2-20.3
				C1390,1415.5,1399.1,1424.5,1399.1,1435.7z"/>
			<path class="st5" d="M989.9,1424.8c0,6.8-5.5,12.3-12.3,12.3c-6.8,0-12.3-5.5-12.3-12.3c0-6.8,5.5-12.3,12.3-12.3
				C984.4,1412.6,989.9,1418,989.9,1424.8z"/>
			<path class="st5" d="M1459.4,963.8c0,7.8-6.3,14.1-14.1,14.2c-7.8,0-14.1-6.3-14.2-14.1c0-7.8,6.3-14.1,14.1-14.2
				C1453,949.6,1459.4,956,1459.4,963.8z"/>
			<path class="st5" d="M688,976.5c0,8.5-6.8,15.3-15.3,15.3c-8.5,0-15.3-6.8-15.4-15.3c0-8.5,6.8-15.3,15.3-15.3
				C681.1,961.2,688,968,688,976.5z"/>
			<path class="st5" d="M937.9,578.4c0,4.8-3.9,8.8-8.7,8.8c-4.8,0-8.8-3.9-8.8-8.7c0-4.8,3.9-8.8,8.7-8.8
				C934,569.7,937.9,573.6,937.9,578.4z"/>
			<path class="st5" d="M1037.5,519.8c0,4.8-3.9,8.8-8.7,8.8c-4.8,0-8.8-3.9-8.8-8.7c0-4.8,3.9-8.8,8.7-8.8
				C1033.6,511,1037.5,515,1037.5,519.8z"/>
		</g>
	</g>
</g>
<g class="st14">
	<rect x="563.7" y="350.6" class="st15" width="758" height="161.3"/>
	<text transform="matrix(0.9454 0 0 1 563.7123 437.3157)" class="st16 st17 st18 st19">Wise City</text>
	<rect x="626.2" y="481.6" class="st15" width="445.1" height="60.6"/>
	<text transform="matrix(0.9454 0 0 1 626.2386 538.4275)" class="st20 st21 st22 st23">Technology</text>
</g>
</svg>
